<svg xmlns="http://www.w3.org/2000/svg" viewBox="0 0 1920 1080" width="1920" height="1080">
  <defs>
    <linearGradient id="g1" x1="0" y1="0" x2="1" y2="1">
      <stop offset="0%" stop-color="#0E0F12"/>
      <stop offset="100%" stop-color="#11141a"/>
    </linearGradient>
    <radialGradient id="glow" cx="70%" cy="30%" r="60%">
      <stop offset="0%" stop-color="#00D084" stop-opacity="0.45"/>
      <stop offset="100%" stop-color="#00D084" stop-opacity="0"/>
    </radialGradient>
    <radialGradient id="glow2" cx="25%" cy="75%" r="55%">
      <stop offset="0%" stop-color="#FF6B6B" stop-opacity="0.25"/>
      <stop offset="100%" stop-color="#FF6B6B" stop-opacity="0"/>
    </radialGradient>
  </defs>
  <rect width="100%" height="100%" fill="url(#g1)"/>
  <rect width="100%" height="100%" fill="url(#glow)"/>
  <rect width="100%" height="100%" fill="url(#glow2)"/>
  <g opacity="0.12" fill="#fff">
    <circle cx="320" cy="220" r="2"/>
    <circle cx="540" cy="180" r="2"/>
    <circle cx="860" cy="140" r="2"/>
    <circle cx="1120" cy="220" r="2"/>
    <circle cx="1360" cy="160" r="2"/>
    <circle cx="1600" cy="240" r="2"/>
    <circle cx="420" cy="480" r="2"/>
    <circle cx="700" cy="520" r="2"/>
    <circle cx="980" cy="480" r="2"/>
    <circle cx="1260" cy="520" r="2"/>
    <circle cx="1540" cy="500" r="2"/>
  </g>
  <g opacity="0.08" stroke="#fff" stroke-width="1" fill="none">
    <path d="M0,860 C480,800 720,920 960,880 C1200,840 1500,780 1920,860"/>
    <path d="M0,900 C420,850 720,980 960,940 C1280,900 1500,860 1920,900"/>
  </g>
  <rect width="100%" height="100%" fill="#000" opacity="0.30"/>
</svg>

